<svg width="20" height="26" viewBox="0 0 20 26" fill="none" xmlns="http://www.w3.org/2000/svg">
  <path
    d="M10.1242 1.65545C11.4968 1.65552 12.847 2.00716 14.0482 2.67748C15.2495 3.3478 16.2624 4.31484 16.9922 5.48802C17.7221 6.6612 18.145 8.00215 18.2213 9.38525C18.2975 10.7684 18.0247 12.1484 17.4283 13.3961C17.1237 14.0311 12.7957 20.9922 10.9833 23.9031C10.8997 24.039 10.7829 24.1509 10.6441 24.2282C10.5052 24.3055 10.349 24.3454 10.1905 24.3443C10.0304 24.3448 9.87286 24.3044 9.73248 24.2268C9.59209 24.1492 9.47345 24.037 9.38763 23.9007C7.53672 20.986 3.10996 14.0093 2.80456 13.3641C2.21525 12.1167 1.94866 10.7389 2.02949 9.35931C2.11032 7.97973 2.53601 6.64323 3.26689 5.47453C3.99777 4.30583 5.00999 3.34295 6.20921 2.67568C7.40842 2.00841 8.75554 1.65848 10.125 1.65853M10.125 0C8.47841 0.000140505 6.85871 0.420993 5.41681 1.22331C3.97491 2.02562 2.75771 3.18329 1.87876 4.5884C0.999821 5.99352 0.487762 7.60033 0.390189 9.25908C0.292616 10.9178 0.61274 12.5745 1.32078 14.0747C1.41564 14.2755 1.7064 14.8826 8.00412 24.7934C8.2387 25.1641 8.56221 25.4691 8.9447 25.68C9.32718 25.8909 9.75622 26.001 10.1921 26C10.6279 25.999 11.0565 25.887 11.438 25.6743C11.8196 25.4616 12.1417 25.1551 12.3746 24.7833C18.5381 14.8888 18.8064 14.3284 18.9075 14.1206C19.6249 12.6202 19.9532 10.9605 19.8616 9.29708C19.77 7.63366 19.2616 6.02089 18.3839 4.60987C17.5063 3.19885 16.288 2.03575 14.8434 1.22948C13.3987 0.423216 11.7758 0.000180837 10.125 0Z"
    fill="#60C802"/>
  <path
    d="M10.1788 24.3411C10.0207 24.3398 9.86538 24.2986 9.72704 24.2213C9.5887 24.1439 9.47174 24.0329 9.38681 23.8982C7.5359 20.9835 3.10914 14.0069 2.80374 13.3616C2.21203 12.1101 1.94531 10.7273 2.02857 9.34314C2.11183 7.95899 2.54234 6.61893 3.27972 5.44881C4.0171 4.2787 5.03714 3.31694 6.24397 2.6539C7.4508 1.99086 8.80479 1.64833 10.1788 1.65842V24.3411Z"
    fill="white"/>
  <path
    d="M13.7521 9.00217C13.7519 9.77442 13.5248 10.5292 13.0996 11.1713C12.6743 11.8133 12.07 12.3137 11.363 12.6091C10.656 12.9045 9.87803 12.9817 9.12753 12.831C8.37704 12.6802 7.68772 12.3083 7.14669 11.7622C6.60565 11.2161 6.2372 10.5203 6.08797 9.76289C5.93874 9.00547 6.01539 8.2204 6.30826 7.50696C6.60113 6.79351 7.09712 6.18372 7.73338 5.7547C8.36965 5.32568 9.11762 5.09668 9.88283 5.09668C10.391 5.09668 10.8942 5.19768 11.3637 5.39396C11.8332 5.59023 12.2598 5.87794 12.6191 6.24061C12.9784 6.60328 13.2634 7.03384 13.4578 7.50767C13.6522 7.9815 13.7522 8.48933 13.7521 9.00217Z"
    fill="white"/>
  <path
    d="M10.178 14.3319C9.19192 14.332 8.22792 14.0371 7.40791 13.4843C6.5879 12.9316 5.94871 12.1459 5.57119 11.2265C5.19368 10.3071 5.09484 9.29542 5.28707 8.31934C5.47931 7.34326 5.95401 6.44665 6.65119 5.74285C7.34837 5.03905 8.23672 4.55969 9.20386 4.36539C10.171 4.17109 11.1735 4.27057 12.0846 4.65127C12.9957 5.03196 13.7745 5.67677 14.3225 6.50414C14.8704 7.33151 15.163 8.30426 15.1631 9.29943C15.1617 10.6334 14.6361 11.9124 13.7016 12.8558C12.7671 13.7992 11.4999 14.33 10.178 14.3319ZM10.178 6.02982C9.53741 6.02982 8.91118 6.22153 8.37851 6.58071C7.84585 6.9399 7.4307 7.45041 7.18554 8.04771C6.94038 8.64502 6.87623 9.30231 7.00121 9.9364C7.12619 10.5705 7.43466 11.1529 7.88766 11.6101C8.34065 12.0672 8.91783 12.3785 9.54616 12.5047C10.1745 12.6308 10.8257 12.5661 11.4176 12.3187C12.0095 12.0713 12.5153 11.6523 12.8713 11.1147C13.2272 10.5772 13.4171 9.94519 13.4171 9.29867C13.4157 8.43223 13.074 7.60169 12.4668 6.9891C11.8597 6.37651 11.0366 6.03105 10.178 6.02982Z"
    fill="#805FCE"/>
</svg>
